<svg width="210" height="210" viewBox="0 0 210 210" fill="none" xmlns="http://www.w3.org/2000/svg">
<path d="M196.045 150.055L108.627 105.786C106.564 104.741 103.218 104.741 101.154 105.786L13.7365 150.055C11.6727 151.1 11.6727 152.794 13.7365 153.839L101.154 198.108C103.218 199.153 106.564 199.153 108.627 198.108L196.045 153.839C198.109 152.794 198.109 151.1 196.045 150.055Z" fill="#171B1E" stroke="#171B1E" stroke-width="11.9369"/>
<path d="M196.263 103.108L108.846 58.8393C106.782 57.7942 103.436 57.7942 101.372 58.8393L13.9548 103.108C11.891 104.153 11.891 105.847 13.9548 106.892L101.372 151.161C103.436 152.206 106.782 152.206 108.846 151.161L196.263 106.892C198.327 105.847 198.327 104.153 196.263 103.108Z" fill="#171B1E" stroke="#171B1E" stroke-width="11.9369"/>
<path d="M195.339 55.6928L109.77 12.3603C107.196 11.0567 103.022 11.0567 100.448 12.3603L14.8788 55.6928C12.3047 56.9963 12.3047 59.1098 14.8788 60.4133L100.448 103.746C103.022 105.049 107.196 105.049 109.77 103.746L195.339 60.4133C197.913 59.1098 197.913 56.9963 195.339 55.6928Z" fill="#171B1E" stroke="#171B1E" stroke-width="11.9369"/>
<path d="M183.84 69.3777L169.339 75.6987C167.782 76.3773 166.569 78.5205 166.629 80.4855L167.403 105.718C167.463 107.683 168.774 108.726 170.331 108.047L184.832 101.726C186.389 101.047 187.603 98.9043 187.542 96.9393L186.769 71.7068C186.708 69.7418 185.397 68.699 183.84 69.3777Z" fill="#171B1E" stroke="#171B1E" stroke-width="10.8174" stroke-linecap="round" stroke-linejoin="round"/>
<path d="M185.656 116.191L170.253 122.907C168.599 123.628 167.308 125.805 167.368 127.77L168.141 152.997C168.202 154.962 169.591 155.97 171.245 155.249L186.647 148.533C188.301 147.812 189.593 145.634 189.533 143.67L188.759 118.442C188.699 116.478 187.309 115.47 185.656 116.191Z" fill="#171B1E" stroke="#171B1E" stroke-width="10.8174" stroke-linecap="round" stroke-linejoin="round"/>
<path d="M184.261 145.828L108.25 101.824C106.456 100.785 103.546 100.785 101.752 101.824L25.7414 145.828C23.9468 146.867 23.9469 148.552 25.7414 149.591L101.752 193.595C103.546 194.634 106.456 194.634 108.25 193.595L184.261 149.591C186.055 148.552 186.055 146.867 184.261 145.828Z" fill="#FB6F5F"/>
<path d="M184.451 104.989L108.44 60.9841C106.646 59.9452 103.736 59.9452 101.942 60.9841L25.9313 104.989C24.1368 106.028 24.1368 107.712 25.9313 108.751L101.942 152.755C103.736 153.794 106.646 153.794 108.44 152.755L184.451 108.751C186.245 107.712 186.245 106.028 184.451 104.989Z" fill="#F35C5C"/>
<path d="M183.647 57.8563L109.244 14.7821C107.005 13.4863 103.376 13.4863 101.138 14.7821L26.7347 57.8563C24.4965 59.1521 24.4965 61.253 26.7347 62.5488L101.138 105.623C103.376 106.919 107.005 106.919 109.244 105.623L183.647 62.5488C185.885 61.253 185.885 59.1521 183.647 57.8563Z" fill="#E93535"/>
<path d="M169.701 82.1204L160.686 87.099C159.747 87.6172 159.054 89.0477 159.137 90.2942L160.206 106.301C160.289 107.547 161.117 108.138 162.055 107.62L171.07 102.641C172.009 102.123 172.702 100.692 172.619 99.4457L171.55 83.4392C171.467 82.1927 170.639 81.6022 169.701 82.1204Z" fill="#171B1E" stroke="#FBFBFB" stroke-width="2.528" stroke-linecap="round" stroke-linejoin="round"/>
<path d="M171.602 127.241L162.587 132.22C161.648 132.738 160.955 134.169 161.038 135.415L162.107 151.422C162.19 152.668 163.018 153.259 163.956 152.741L172.971 147.762C173.909 147.244 174.603 145.813 174.519 144.567L173.451 128.56C173.368 127.314 172.54 126.723 171.602 127.241Z" fill="#171B1E" stroke="#FBFBFB" stroke-width="2.528" stroke-linecap="round" stroke-linejoin="round"/>
<rect width="95.8262" height="5.57381" rx="2.7869" transform="matrix(0.870084 -0.492904 0.367257 0.93012 101.233 104.354)" fill="#FBFBFB"/>
<rect width="95.8262" height="5.57381" rx="2.7869" transform="matrix(0.870084 -0.492904 0.367257 0.93012 101.233 150.472)" fill="#FBFBFB"/>
</svg>
